<?xml version="1.0" standalone="no"?>
<!DOCTYPE svg PUBLIC "-//W3C//DTD SVG 20010904//EN"
 "http://www.w3.org/TR/2001/REC-SVG-20010904/DTD/svg10.dtd">
<svg version="1.0" xmlns="http://www.w3.org/2000/svg"
 width="400.000000pt" height="400.000000pt" viewBox="0 0 400.000000 400.000000"
 preserveAspectRatio="xMidYMid meet">
<metadata>
Created by potrace 1.14, written by Peter Selinger 2001-2017
</metadata>
<g transform="translate(0.000000,400.000000) scale(0.100000,-0.100000)"
fill="#000000" stroke="none">
<path d="M320 3986 c-146 -41 -253 -143 -300 -286 -13 -39 -15 -255 -15 -1595
0 -1484 1 -1553 19 -1610 76 -246 263 -423 506 -479 96 -23 2829 -23 2933 -1
261 56 466 260 522 518 18 83 22 3044 4 3129 -28 132 -112 236 -237 296 l-77
37 -1655 2 c-1311 1 -1664 -1 -1700 -11z"/>
</g>
</svg>
